<?xml version="1.0" encoding="UTF-8" standalone="no"?>
<!-- Created with Inkscape (http://www.inkscape.org/) -->

<svg
   xmlns:dc="http://purl.org/dc/elements/1.1/"
   xmlns:cc="http://creativecommons.org/ns#"
   xmlns:rdf="http://www.w3.org/1999/02/22-rdf-syntax-ns#"
   xmlns:svg="http://www.w3.org/2000/svg"
   xmlns="http://www.w3.org/2000/svg"
   xmlns:sodipodi="http://sodipodi.sourceforge.net/DTD/sodipodi-0.dtd"
   xmlns:inkscape="http://www.inkscape.org/namespaces/inkscape"
   id="svg2"
   version="1.1"
   inkscape:version="0.91 r13725"
   xml:space="preserve"
   width="430"
   height="560"
   viewBox="0 0 430 560"
   sodipodi:docname="torvergata-logo-bw.svg"><title
     id="title4326">Logo University of Rome Tor Vergata</title><metadata
     id="metadata8"><rdf:RDF><cc:Work
         rdf:about=""><dc:format>image/svg+xml</dc:format><dc:type
           rdf:resource="http://purl.org/dc/dcmitype/StillImage" /><dc:title>Logo University of Rome Tor Vergata</dc:title><dc:creator><cc:Agent><dc:title>Giacomo Marciani</dc:title></cc:Agent></dc:creator><dc:description>Logo Black&amp;White</dc:description></cc:Work></rdf:RDF></metadata><defs
     id="defs6" /><sodipodi:namedview
     pagecolor="#ffffff"
     bordercolor="#666666"
     borderopacity="1"
     objecttolerance="10"
     gridtolerance="10"
     guidetolerance="10"
     inkscape:pageopacity="0"
     inkscape:pageshadow="2"
     inkscape:window-width="1366"
     inkscape:window-height="747"
     id="namedview4"
     showgrid="false"
     inkscape:zoom="0.35027829"
     inkscape:cx="-631.64727"
     inkscape:cy="336.875"
     inkscape:window-x="0"
     inkscape:window-y="21"
     inkscape:window-maximized="1"
     inkscape:current-layer="g10" /><g
     id="g10"
     inkscape:groupmode="layer"
     inkscape:label="ink_ext_XXXXXX"
     transform="matrix(1.25,0,0,-1.25,0,560)"><g
       id="g4284"
       transform="translate(0.34651,-90.9684)"><path
         d="m 58.252,537.488 -56.69302,0 0,-274.96 c 0,-93.933 76.14572,-170.0792 170.07902,-170.0792 93.933,0 170.11,76.1462 170.11,170.0792 l 0,274.96 -56.724,0 0.015,-274.96 c 0,-62.623 -50.779,-113.386 -113.401,-113.386 -62.622,0 -113.386,50.763 -113.386,113.386 l 0,274.96"
         style="fill:#000000;fill-opacity:1;fill-rule:nonzero;stroke:none"
         id="path14"
         inkscape:connector-curvature="0" /><path
         d="m 58.252,537.488 -56.69302,0 0,-274.96 c 0,-93.933 76.14572,-170.0792 170.07902,-170.0792 93.933,0 170.11,76.1462 170.11,170.0792 l 0,274.96 -56.724,0 0.015,-274.96 c 0,-62.623 -50.779,-113.386 -113.401,-113.386 -62.622,0 -113.386,50.763 -113.386,113.386 l 0,274.96 z"
         style="fill:#000000;stroke:none;stroke-width:1;stroke-linecap:butt;stroke-linejoin:miter;stroke-miterlimit:3.86370993;stroke-dasharray:none;stroke-opacity:1"
         id="path16"
         inkscape:connector-curvature="0" /><path
         d="m 88.016,224.26 167.244,0 0,17.0082 -167.244,0 0,-17.0082 z"
         style="fill:#000000;fill-opacity:1;fill-rule:nonzero;stroke:none"
         id="path18"
         inkscape:connector-curvature="0" /><path
         d="m 88.016,224.26 167.244,0 0,17.0082 -167.244,0 0,-17.0082 z"
         style="fill:#000000;stroke:none;stroke-width:1;stroke-linecap:butt;stroke-linejoin:miter;stroke-miterlimit:3.86370993;stroke-dasharray:none;stroke-opacity:1"
         id="path20"
         inkscape:connector-curvature="0" /><path
         d="m 88.016,246.164 167.244,0 0,17.0078 -167.244,0 0,-17.0078 z"
         style="fill:#000000;fill-opacity:1;fill-rule:nonzero;stroke:none"
         id="path22"
         inkscape:connector-curvature="0" /><path
         d="m 88.016,246.164 167.244,0 0,17.0078 -167.244,0 0,-17.0078 z"
         style="fill:#000000;stroke:none;stroke-width:1;stroke-linecap:butt;stroke-linejoin:miter;stroke-miterlimit:3.86370993;stroke-dasharray:none;stroke-opacity:1"
         id="path24"
         inkscape:connector-curvature="0" /><path
         d="m 88.016,268.068 167.244,0 0,17.0082 -167.244,0 0,-17.0082 z"
         style="fill:#000000;fill-opacity:1;fill-rule:nonzero;stroke:none"
         id="path26"
         inkscape:connector-curvature="0" /><path
         d="m 88.016,268.068 167.244,0 0,17.0082 -167.244,0 0,-17.0082 z"
         style="fill:#000000;stroke:none;stroke-width:1;stroke-linecap:butt;stroke-linejoin:miter;stroke-miterlimit:3.86370993;stroke-dasharray:none;stroke-opacity:1"
         id="path28"
         inkscape:connector-curvature="0" /><path
         d="m 88.016,289.972 167.244,0 0,17.0078 -167.244,0 0,-17.0078 z"
         style="fill:#000000;fill-opacity:1;fill-rule:nonzero;stroke:none"
         id="path30"
         inkscape:connector-curvature="0" /><path
         d="m 88.016,289.972 167.244,0 0,17.0078 -167.244,0 0,-17.0078 z"
         style="fill:#000000;stroke:none;stroke-width:1;stroke-linecap:butt;stroke-linejoin:miter;stroke-miterlimit:3.86370993;stroke-dasharray:none;stroke-opacity:1"
         id="path32"
         inkscape:connector-curvature="0" /><path
         d="m 88.016,311.876 167.244,0 0,17.0078 -167.244,0 0,-17.0078 z"
         style="fill:#000000;fill-opacity:1;fill-rule:nonzero;stroke:none"
         id="path34"
         inkscape:connector-curvature="0" /><path
         d="m 88.016,311.876 167.244,0 0,17.0078 -167.244,0 0,-17.0078 z"
         style="fill:#000000;stroke:none;stroke-width:1;stroke-linecap:butt;stroke-linejoin:miter;stroke-miterlimit:3.86370993;stroke-dasharray:none;stroke-opacity:1"
         id="path36"
         inkscape:connector-curvature="0" /><path
         d="m 88.016,333.78 167.244,0 0,17.0078 -167.244,0 0,-17.0078 z"
         style="fill:#000000;fill-opacity:1;fill-rule:nonzero;stroke:none"
         id="path38"
         inkscape:connector-curvature="0" /><path
         d="m 88.016,333.78 167.244,0 0,17.0078 -167.244,0 0,-17.0078 z"
         style="fill:#000000;stroke:none;stroke-width:1;stroke-linecap:butt;stroke-linejoin:miter;stroke-miterlimit:3.86370993;stroke-dasharray:none;stroke-opacity:1"
         id="path40"
         inkscape:connector-curvature="0" /><path
         d="m 88.016,355.684 167.244,0 0,17.0078 -167.244,0 0,-17.0078 z"
         style="fill:#000000;fill-opacity:1;fill-rule:nonzero;stroke:none"
         id="path42"
         inkscape:connector-curvature="0" /><path
         d="m 88.016,355.684 167.244,0 0,17.0078 -167.244,0 0,-17.0078 z"
         style="fill:#000000;stroke:none;stroke-width:1;stroke-linecap:butt;stroke-linejoin:miter;stroke-miterlimit:3.86370993;stroke-dasharray:none;stroke-opacity:1"
         id="path44"
         inkscape:connector-curvature="0" /><path
         d="m 88.016,377.588 167.244,0 0,17.0078 -167.244,0 0,-17.0078 z"
         style="fill:#000000;fill-opacity:1;fill-rule:nonzero;stroke:none"
         id="path46"
         inkscape:connector-curvature="0" /><path
         d="m 88.016,377.588 167.244,0 0,17.0078 -167.244,0 0,-17.0078 z"
         style="fill:#000000;stroke:none;stroke-width:1;stroke-linecap:butt;stroke-linejoin:miter;stroke-miterlimit:3.86370993;stroke-dasharray:none;stroke-opacity:1"
         id="path48"
         inkscape:connector-curvature="0" /><path
         d="m 88.016,399.493 167.244,0 0,17.0078 -167.244,0 0,-17.0078 z"
         style="fill:#000000;fill-opacity:1;fill-rule:nonzero;stroke:none"
         id="path50"
         inkscape:connector-curvature="0" /><path
         d="m 88.016,399.493 167.244,0 0,17.0078 -167.244,0 0,-17.0078 z"
         style="fill:#000000;stroke:none;stroke-width:1;stroke-linecap:butt;stroke-linejoin:miter;stroke-miterlimit:3.86370993;stroke-dasharray:none;stroke-opacity:1"
         id="path52"
         inkscape:connector-curvature="0" /><path
         d="m 88.016,421.396 167.244,0 0,17.0078 -167.244,0 0,-17.0078 z"
         style="fill:#000000;fill-opacity:1;fill-rule:nonzero;stroke:none"
         id="path54"
         inkscape:connector-curvature="0" /><path
         d="m 88.016,421.396 167.244,0 0,17.0078 -167.244,0 0,-17.0078 z"
         style="fill:#000000;stroke:none;stroke-width:1;stroke-linecap:butt;stroke-linejoin:miter;stroke-miterlimit:3.86370993;stroke-dasharray:none;stroke-opacity:1"
         id="path56"
         inkscape:connector-curvature="0" /><path
         d="m 88.016,443.301 167.244,0 0,17.0078 -167.244,0 0,-17.0078 z"
         style="fill:#000000;fill-opacity:1;fill-rule:nonzero;stroke:none"
         id="path58"
         inkscape:connector-curvature="0" /><path
         d="m 88.016,443.301 167.244,0 0,17.0078 -167.244,0 0,-17.0078 z"
         style="fill:#000000;stroke:none;stroke-width:1;stroke-linecap:butt;stroke-linejoin:miter;stroke-miterlimit:3.86370993;stroke-dasharray:none;stroke-opacity:1"
         id="path60"
         inkscape:connector-curvature="0" /><path
         d="m 88.016,465.205 167.244,0 0,17.0082 -167.244,0 0,-17.0082 z"
         style="fill:#000000;fill-opacity:1;fill-rule:nonzero;stroke:none"
         id="path62"
         inkscape:connector-curvature="0" /><path
         d="m 88.016,465.205 167.244,0 0,17.0082 -167.244,0 0,-17.0082 z"
         style="fill:#000000;stroke:none;stroke-width:1;stroke-linecap:butt;stroke-linejoin:miter;stroke-miterlimit:3.86370993;stroke-dasharray:none;stroke-opacity:1"
         id="path64"
         inkscape:connector-curvature="0" /><path
         d="m 88.016,486.465 167.244,0 0,19.8422 -167.244,0 0,-19.8422 z"
         style="fill:#000000;fill-opacity:1;fill-rule:nonzero;stroke:none"
         id="path66"
         inkscape:connector-curvature="0" /><path
         d="m 88.016,486.465 167.244,0 0,19.8422 -167.244,0 0,-19.8422 z"
         style="fill:#000000;stroke:none;stroke-width:1;stroke-linecap:butt;stroke-linejoin:miter;stroke-miterlimit:3.86370993;stroke-dasharray:none;stroke-opacity:1"
         id="path68"
         inkscape:connector-curvature="0" /><path
         d="m 88.016,504.89 17.0078,0 0,28.3465 -17.0078,0 0,-28.3465 z"
         style="fill:#000000;fill-opacity:1;fill-rule:nonzero;stroke:none"
         id="path70"
         inkscape:connector-curvature="0" /><path
         d="m 88.016,504.89 17.0078,0 0,28.3465 -17.0078,0 0,-28.3465 z"
         style="fill:#000000;stroke:none;stroke-width:1;stroke-linecap:butt;stroke-linejoin:miter;stroke-miterlimit:3.86370993;stroke-dasharray:none;stroke-opacity:1"
         id="path72"
         inkscape:connector-curvature="0" /><path
         d="m 125.575,504.89 17.0078,0 0,28.3465 -17.0078,0 0,-28.3465 z"
         style="fill:#000000;fill-opacity:1;fill-rule:nonzero;stroke:none"
         id="path74"
         inkscape:connector-curvature="0" /><path
         d="m 125.575,504.89 17.0078,0 0,28.3465 -17.0078,0 0,-28.3465 z"
         style="fill:#000000;stroke:none;stroke-width:1;stroke-linecap:butt;stroke-linejoin:miter;stroke-miterlimit:3.86370993;stroke-dasharray:none;stroke-opacity:1"
         id="path76"
         inkscape:connector-curvature="0" /><path
         d="m 163.134,504.89 17.0078,0 0,28.3465 -17.0078,0 0,-28.3465 z"
         style="fill:#000000;fill-opacity:1;fill-rule:nonzero;stroke:none"
         id="path78"
         inkscape:connector-curvature="0" /><path
         d="m 163.134,504.89 17.0078,0 0,28.3465 -17.0078,0 0,-28.3465 z"
         style="fill:#000000;stroke:none;stroke-width:1;stroke-linecap:butt;stroke-linejoin:miter;stroke-miterlimit:3.86370993;stroke-dasharray:none;stroke-opacity:1"
         id="path80"
         inkscape:connector-curvature="0" /><path
         d="m 200.693,504.89 17.0078,0 0,28.3465 -17.0078,0 0,-28.3465 z"
         style="fill:#000000;fill-opacity:1;fill-rule:nonzero;stroke:none"
         id="path82"
         inkscape:connector-curvature="0" /><path
         d="m 200.693,504.89 17.0078,0 0,28.3465 -17.0078,0 0,-28.3465 z"
         style="fill:#000000;stroke:none;stroke-width:1;stroke-linecap:butt;stroke-linejoin:miter;stroke-miterlimit:3.86370993;stroke-dasharray:none;stroke-opacity:1"
         id="path84"
         inkscape:connector-curvature="0" /><path
         d="m 238.252,504.89 17.0078,0 0,28.3465 -17.0078,0 0,-28.3465 z"
         style="fill:#000000;fill-opacity:1;fill-rule:nonzero;stroke:none"
         id="path86"
         inkscape:connector-curvature="0" /><path
         d="m 238.252,504.89 17.0078,0 0,28.3465 -17.0078,0 0,-28.3465 z"
         style="fill:#000000;stroke:none;stroke-width:1;stroke-linecap:butt;stroke-linejoin:miter;stroke-miterlimit:3.86370993;stroke-dasharray:none;stroke-opacity:1"
         id="path88"
         inkscape:connector-curvature="0" /></g></g></svg>