<?xml version="1.0" encoding="UTF-8" standalone="no"?>
<!-- Created with Inkscape (http://www.inkscape.org/) -->

<svg
   xmlns:dc="http://purl.org/dc/elements/1.1/"
   xmlns:cc="http://creativecommons.org/ns#"
   xmlns:rdf="http://www.w3.org/1999/02/22-rdf-syntax-ns#"
   xmlns:svg="http://www.w3.org/2000/svg"
   xmlns="http://www.w3.org/2000/svg"
   xmlns:sodipodi="http://sodipodi.sourceforge.net/DTD/sodipodi-0.dtd"
   xmlns:inkscape="http://www.inkscape.org/namespaces/inkscape"
   id="svg2"
   version="1.1"
   inkscape:version="0.91 r13725"
   xml:space="preserve"
   width="432.5"
   height="673.75"
   viewBox="0 0 432.5 673.75"
   sodipodi:docname="torvergata-logotipo-bw.svg"><title
     id="title4209">Logotipo University of Rome Tor Vergata</title><metadata
     id="metadata8"><rdf:RDF><cc:Work
         rdf:about=""><dc:format>image/svg+xml</dc:format><dc:type
           rdf:resource="http://purl.org/dc/dcmitype/StillImage" /><dc:title>Logotipo University of Rome Tor Vergata</dc:title><dc:creator><cc:Agent><dc:title>Giacomo Marciani</dc:title></cc:Agent></dc:creator><dc:description>Logotipo Black&amp;White</dc:description></cc:Work></rdf:RDF></metadata><defs
     id="defs6" /><sodipodi:namedview
     pagecolor="#ffffff"
     bordercolor="#666666"
     borderopacity="1"
     objecttolerance="10"
     gridtolerance="10"
     guidetolerance="10"
     inkscape:pageopacity="0"
     inkscape:pageshadow="2"
     inkscape:window-width="1366"
     inkscape:window-height="747"
     id="namedview4"
     showgrid="false"
     inkscape:zoom="0.35027829"
     inkscape:cx="-631.64726"
     inkscape:cy="336.875"
     inkscape:window-x="0"
     inkscape:window-y="21"
     inkscape:window-maximized="1"
     inkscape:current-layer="g10" /><g
     id="g10"
     inkscape:groupmode="layer"
     inkscape:label="ink_ext_XXXXXX"
     transform="matrix(1.25,0,0,-1.25,0,673.75)"><g
       id="g4284"><path
         d="m 58.252,537.488 -56.69302,0 0,-274.96 c 0,-93.933 76.14572,-170.0792 170.07902,-170.0792 93.933,0 170.11,76.1462 170.11,170.0792 l 0,274.96 -56.724,0 0.015,-274.96 c 0,-62.623 -50.779,-113.386 -113.401,-113.386 -62.622,0 -113.386,50.763 -113.386,113.386 l 0,274.96"
         style="fill:#000000;fill-opacity:1;fill-rule:nonzero;stroke:none"
         id="path14"
         inkscape:connector-curvature="0" /><path
         d="m 58.252,537.488 -56.69302,0 0,-274.96 c 0,-93.933 76.14572,-170.0792 170.07902,-170.0792 93.933,0 170.11,76.1462 170.11,170.0792 l 0,274.96 -56.724,0 0.015,-274.96 c 0,-62.623 -50.779,-113.386 -113.401,-113.386 -62.622,0 -113.386,50.763 -113.386,113.386 l 0,274.96 z"
         style="fill:#000000;stroke:none;stroke-width:1;stroke-linecap:butt;stroke-linejoin:miter;stroke-miterlimit:3.86370993;stroke-dasharray:none;stroke-opacity:1"
         id="path16"
         inkscape:connector-curvature="0" /><path
         d="m 88.016,224.26 167.244,0 0,17.0082 -167.244,0 0,-17.0082 z"
         style="fill:#000000;fill-opacity:1;fill-rule:nonzero;stroke:none"
         id="path18"
         inkscape:connector-curvature="0" /><path
         d="m 88.016,224.26 167.244,0 0,17.0082 -167.244,0 0,-17.0082 z"
         style="fill:#000000;stroke:none;stroke-width:1;stroke-linecap:butt;stroke-linejoin:miter;stroke-miterlimit:3.86370993;stroke-dasharray:none;stroke-opacity:1"
         id="path20"
         inkscape:connector-curvature="0" /><path
         d="m 88.016,246.164 167.244,0 0,17.0078 -167.244,0 0,-17.0078 z"
         style="fill:#000000;fill-opacity:1;fill-rule:nonzero;stroke:none"
         id="path22"
         inkscape:connector-curvature="0" /><path
         d="m 88.016,246.164 167.244,0 0,17.0078 -167.244,0 0,-17.0078 z"
         style="fill:#000000;stroke:none;stroke-width:1;stroke-linecap:butt;stroke-linejoin:miter;stroke-miterlimit:3.86370993;stroke-dasharray:none;stroke-opacity:1"
         id="path24"
         inkscape:connector-curvature="0" /><path
         d="m 88.016,268.068 167.244,0 0,17.0082 -167.244,0 0,-17.0082 z"
         style="fill:#000000;fill-opacity:1;fill-rule:nonzero;stroke:none"
         id="path26"
         inkscape:connector-curvature="0" /><path
         d="m 88.016,268.068 167.244,0 0,17.0082 -167.244,0 0,-17.0082 z"
         style="fill:#000000;stroke:none;stroke-width:1;stroke-linecap:butt;stroke-linejoin:miter;stroke-miterlimit:3.86370993;stroke-dasharray:none;stroke-opacity:1"
         id="path28"
         inkscape:connector-curvature="0" /><path
         d="m 88.016,289.972 167.244,0 0,17.0078 -167.244,0 0,-17.0078 z"
         style="fill:#000000;fill-opacity:1;fill-rule:nonzero;stroke:none"
         id="path30"
         inkscape:connector-curvature="0" /><path
         d="m 88.016,289.972 167.244,0 0,17.0078 -167.244,0 0,-17.0078 z"
         style="fill:#000000;stroke:none;stroke-width:1;stroke-linecap:butt;stroke-linejoin:miter;stroke-miterlimit:3.86370993;stroke-dasharray:none;stroke-opacity:1"
         id="path32"
         inkscape:connector-curvature="0" /><path
         d="m 88.016,311.876 167.244,0 0,17.0078 -167.244,0 0,-17.0078 z"
         style="fill:#000000;fill-opacity:1;fill-rule:nonzero;stroke:none"
         id="path34"
         inkscape:connector-curvature="0" /><path
         d="m 88.016,311.876 167.244,0 0,17.0078 -167.244,0 0,-17.0078 z"
         style="fill:#000000;stroke:none;stroke-width:1;stroke-linecap:butt;stroke-linejoin:miter;stroke-miterlimit:3.86370993;stroke-dasharray:none;stroke-opacity:1"
         id="path36"
         inkscape:connector-curvature="0" /><path
         d="m 88.016,333.78 167.244,0 0,17.0078 -167.244,0 0,-17.0078 z"
         style="fill:#000000;fill-opacity:1;fill-rule:nonzero;stroke:none"
         id="path38"
         inkscape:connector-curvature="0" /><path
         d="m 88.016,333.78 167.244,0 0,17.0078 -167.244,0 0,-17.0078 z"
         style="fill:#000000;stroke:none;stroke-width:1;stroke-linecap:butt;stroke-linejoin:miter;stroke-miterlimit:3.86370993;stroke-dasharray:none;stroke-opacity:1"
         id="path40"
         inkscape:connector-curvature="0" /><path
         d="m 88.016,355.684 167.244,0 0,17.0078 -167.244,0 0,-17.0078 z"
         style="fill:#000000;fill-opacity:1;fill-rule:nonzero;stroke:none"
         id="path42"
         inkscape:connector-curvature="0" /><path
         d="m 88.016,355.684 167.244,0 0,17.0078 -167.244,0 0,-17.0078 z"
         style="fill:#000000;stroke:none;stroke-width:1;stroke-linecap:butt;stroke-linejoin:miter;stroke-miterlimit:3.86370993;stroke-dasharray:none;stroke-opacity:1"
         id="path44"
         inkscape:connector-curvature="0" /><path
         d="m 88.016,377.588 167.244,0 0,17.0078 -167.244,0 0,-17.0078 z"
         style="fill:#000000;fill-opacity:1;fill-rule:nonzero;stroke:none"
         id="path46"
         inkscape:connector-curvature="0" /><path
         d="m 88.016,377.588 167.244,0 0,17.0078 -167.244,0 0,-17.0078 z"
         style="fill:#000000;stroke:none;stroke-width:1;stroke-linecap:butt;stroke-linejoin:miter;stroke-miterlimit:3.86370993;stroke-dasharray:none;stroke-opacity:1"
         id="path48"
         inkscape:connector-curvature="0" /><path
         d="m 88.016,399.493 167.244,0 0,17.0078 -167.244,0 0,-17.0078 z"
         style="fill:#000000;fill-opacity:1;fill-rule:nonzero;stroke:none"
         id="path50"
         inkscape:connector-curvature="0" /><path
         d="m 88.016,399.493 167.244,0 0,17.0078 -167.244,0 0,-17.0078 z"
         style="fill:#000000;stroke:none;stroke-width:1;stroke-linecap:butt;stroke-linejoin:miter;stroke-miterlimit:3.86370993;stroke-dasharray:none;stroke-opacity:1"
         id="path52"
         inkscape:connector-curvature="0" /><path
         d="m 88.016,421.396 167.244,0 0,17.0078 -167.244,0 0,-17.0078 z"
         style="fill:#000000;fill-opacity:1;fill-rule:nonzero;stroke:none"
         id="path54"
         inkscape:connector-curvature="0" /><path
         d="m 88.016,421.396 167.244,0 0,17.0078 -167.244,0 0,-17.0078 z"
         style="fill:#000000;stroke:none;stroke-width:1;stroke-linecap:butt;stroke-linejoin:miter;stroke-miterlimit:3.86370993;stroke-dasharray:none;stroke-opacity:1"
         id="path56"
         inkscape:connector-curvature="0" /><path
         d="m 88.016,443.301 167.244,0 0,17.0078 -167.244,0 0,-17.0078 z"
         style="fill:#000000;fill-opacity:1;fill-rule:nonzero;stroke:none"
         id="path58"
         inkscape:connector-curvature="0" /><path
         d="m 88.016,443.301 167.244,0 0,17.0078 -167.244,0 0,-17.0078 z"
         style="fill:#000000;stroke:none;stroke-width:1;stroke-linecap:butt;stroke-linejoin:miter;stroke-miterlimit:3.86370993;stroke-dasharray:none;stroke-opacity:1"
         id="path60"
         inkscape:connector-curvature="0" /><path
         d="m 88.016,465.205 167.244,0 0,17.0082 -167.244,0 0,-17.0082 z"
         style="fill:#000000;fill-opacity:1;fill-rule:nonzero;stroke:none"
         id="path62"
         inkscape:connector-curvature="0" /><path
         d="m 88.016,465.205 167.244,0 0,17.0082 -167.244,0 0,-17.0082 z"
         style="fill:#000000;stroke:none;stroke-width:1;stroke-linecap:butt;stroke-linejoin:miter;stroke-miterlimit:3.86370993;stroke-dasharray:none;stroke-opacity:1"
         id="path64"
         inkscape:connector-curvature="0" /><path
         d="m 88.016,486.465 167.244,0 0,19.8422 -167.244,0 0,-19.8422 z"
         style="fill:#000000;fill-opacity:1;fill-rule:nonzero;stroke:none"
         id="path66"
         inkscape:connector-curvature="0" /><path
         d="m 88.016,486.465 167.244,0 0,19.8422 -167.244,0 0,-19.8422 z"
         style="fill:#000000;stroke:none;stroke-width:1;stroke-linecap:butt;stroke-linejoin:miter;stroke-miterlimit:3.86370993;stroke-dasharray:none;stroke-opacity:1"
         id="path68"
         inkscape:connector-curvature="0" /><path
         d="m 88.016,504.89 17.0078,0 0,28.3465 -17.0078,0 0,-28.3465 z"
         style="fill:#000000;fill-opacity:1;fill-rule:nonzero;stroke:none"
         id="path70"
         inkscape:connector-curvature="0" /><path
         d="m 88.016,504.89 17.0078,0 0,28.3465 -17.0078,0 0,-28.3465 z"
         style="fill:#000000;stroke:none;stroke-width:1;stroke-linecap:butt;stroke-linejoin:miter;stroke-miterlimit:3.86370993;stroke-dasharray:none;stroke-opacity:1"
         id="path72"
         inkscape:connector-curvature="0" /><path
         d="m 125.575,504.89 17.0078,0 0,28.3465 -17.0078,0 0,-28.3465 z"
         style="fill:#000000;fill-opacity:1;fill-rule:nonzero;stroke:none"
         id="path74"
         inkscape:connector-curvature="0" /><path
         d="m 125.575,504.89 17.0078,0 0,28.3465 -17.0078,0 0,-28.3465 z"
         style="fill:#000000;stroke:none;stroke-width:1;stroke-linecap:butt;stroke-linejoin:miter;stroke-miterlimit:3.86370993;stroke-dasharray:none;stroke-opacity:1"
         id="path76"
         inkscape:connector-curvature="0" /><path
         d="m 163.134,504.89 17.0078,0 0,28.3465 -17.0078,0 0,-28.3465 z"
         style="fill:#000000;fill-opacity:1;fill-rule:nonzero;stroke:none"
         id="path78"
         inkscape:connector-curvature="0" /><path
         d="m 163.134,504.89 17.0078,0 0,28.3465 -17.0078,0 0,-28.3465 z"
         style="fill:#000000;stroke:none;stroke-width:1;stroke-linecap:butt;stroke-linejoin:miter;stroke-miterlimit:3.86370993;stroke-dasharray:none;stroke-opacity:1"
         id="path80"
         inkscape:connector-curvature="0" /><path
         d="m 200.693,504.89 17.0078,0 0,28.3465 -17.0078,0 0,-28.3465 z"
         style="fill:#000000;fill-opacity:1;fill-rule:nonzero;stroke:none"
         id="path82"
         inkscape:connector-curvature="0" /><path
         d="m 200.693,504.89 17.0078,0 0,28.3465 -17.0078,0 0,-28.3465 z"
         style="fill:#000000;stroke:none;stroke-width:1;stroke-linecap:butt;stroke-linejoin:miter;stroke-miterlimit:3.86370993;stroke-dasharray:none;stroke-opacity:1"
         id="path84"
         inkscape:connector-curvature="0" /><path
         d="m 238.252,504.89 17.0078,0 0,28.3465 -17.0078,0 0,-28.3465 z"
         style="fill:#000000;fill-opacity:1;fill-rule:nonzero;stroke:none"
         id="path86"
         inkscape:connector-curvature="0" /><path
         d="m 238.252,504.89 17.0078,0 0,28.3465 -17.0078,0 0,-28.3465 z"
         style="fill:#000000;stroke:none;stroke-width:1;stroke-linecap:butt;stroke-linejoin:miter;stroke-miterlimit:3.86370993;stroke-dasharray:none;stroke-opacity:1"
         id="path88"
         inkscape:connector-curvature="0" /><path
         d="m 2.14414,80.6371 0,-18.8019 c 0,-4.9176 0.46211,-8.8227 5.71094,-8.8227 5.74332,0 5.71052,4.7004 5.71052,8.2801 l 0,19.3445 -3.3011,0 0,-20.393 c -0.0329,-2.2418 -0.2309,-3.8328 -2.50864,-3.8328 -1.35352,0 -2.31055,0.7231 -2.31055,4.2305 l 0,19.9953 -3.30117,0"
         style="fill:#000000;fill-opacity:1;fill-rule:nonzero;stroke:none"
         id="path90"
         inkscape:connector-curvature="0" /><path
         d="m 20.2867,74.3094 0.066,0.0726 5.8098,-21.0082 3.0699,0 0,27.2633 -3.3011,0 0,-9.7266 0.7925,-10.9195 -0.0664,-0.0726 -5.8094,20.7187 -3.1691,0 0,-27.2633 3.3012,0 0,10.016 -0.4953,9.1481 -0.1981,1.7715"
         style="fill:#000000;fill-opacity:1;fill-rule:nonzero;stroke:none"
         id="path92"
         inkscape:connector-curvature="0" /><path
         d="m 33.3762,53.3738 3.30117,0 0,27.2633 -3.30117,0 0,-27.2633 z"
         style="fill:#000000;fill-opacity:1;fill-rule:nonzero;stroke:none"
         id="path94"
         inkscape:connector-curvature="0" /><path
         d="m 38.9711,80.6371 4.8195,-27.2633 2.6407,0 4.8855,27.2633 -3.1359,0 -1.5184,-9.618 -1.3203,-9.1839 -0.1652,-1.6997 -0.0661,0 -2.839,20.5016 -3.3008,0"
         style="fill:#000000;fill-opacity:1;fill-rule:nonzero;stroke:none"
         id="path96"
         inkscape:connector-curvature="0" /><path
         d="m 53.6234,80.6371 0,-27.2633 8.8793,0 0,3.1461 -5.5785,0 0,9.2563 4.9844,0 0,3.1457 -4.9844,0 0,8.5695 5.5785,0 0,3.1457 -8.8793,0"
         style="fill:#000000;fill-opacity:1;fill-rule:nonzero;stroke:none"
         id="path98"
         inkscape:connector-curvature="0" /><path
         d="m 65.1605,53.3738 3.3008,0 0,13.3426 0.066,0 4.4891,-13.3426 3.4332,0 -4.5883,13.2703 c 2.7399,0.5422 3.4328,4.4473 3.4328,7.0145 0,6.834 -3.7628,6.9785 -6.1726,6.9785 l -3.961,0 0,-27.2633 z m 3.3008,15.1867 0,9.0032 0.5282,0 c 2.5085,0.0722 2.8058,-2.0969 2.8058,-4.7004 0,-2.7481 -0.8582,-4.4836 -3.334,-4.3028"
         style="fill:#000000;fill-opacity:1;fill-rule:evenodd;stroke:none"
         id="path100"
         inkscape:connector-curvature="0" /><path
         d="m 86.6855,80.0949 c -1.0562,0.6871 -2.2445,0.9039 -3.4988,0.9039 -3.7301,0 -5.5789,-3.1457 -5.5789,-6.9785 0,-7.1594 6.9652,-8.2441 6.9652,-13.668 0,-2.0246 -0.8582,-3.7964 -2.9046,-3.7964 -1.2875,0 -2.2778,0.6148 -3.268,1.4101 l 0,-3.6519 c 1.023,-0.9039 2.3434,-1.3016 3.6309,-1.3016 3.664,0 5.8425,3.2902 5.8425,7.123 0,3.6883 -1.2871,5.4961 -3.532,7.9911 l -2.5086,3.0011 c -0.6602,0.9403 -0.9242,1.7715 -0.9242,2.9649 0,1.8804 1.1223,3.5074 2.9379,3.5074 1.1222,0 1.9476,-0.4703 2.8058,-1.157 l 0.0328,3.6519"
         style="fill:#000000;fill-opacity:1;fill-rule:nonzero;stroke:none"
         id="path102"
         inkscape:connector-curvature="0" /><path
         d="m 90.759,53.3738 3.30078,0 0,27.2633 -3.30078,0 0,-27.2633 z"
         style="fill:#000000;fill-opacity:1;fill-rule:nonzero;stroke:none"
         id="path104"
         inkscape:connector-curvature="0" /><path
         d="m 95.9906,80.6371 0,-3.1457 3.8953,0 0,-24.1176 3.3011,0 0,24.1176 3.73,0 0,3.1457 -10.9264,0"
         style="fill:#000000;fill-opacity:1;fill-rule:nonzero;stroke:none"
         id="path106"
         inkscape:connector-curvature="0" /><path
         d="m 111.184,80.6371 -5.414,-27.2633 3.235,0 0.924,5.3153 4.952,0 0.924,-5.3153 3.334,0 -5.348,27.2633 -2.607,0 z m 3.202,-19.1273 -3.962,0 1.981,13.8484 0.066,0 1.254,-9.9074 0.661,-3.941"
         style="fill:#000000;fill-opacity:1;fill-rule:evenodd;stroke:none"
         id="path108"
         inkscape:connector-curvature="0" /><path
         d="m 122.51,72.4656 2.047,0 0.396,8.1715 -2.839,0 0.396,-8.1715"
         style="fill:#000000;fill-opacity:1;fill-rule:nonzero;stroke:none"
         id="path110"
         inkscape:connector-curvature="0" /><path
         d="m 142.562,53.3738 3.103,0 0,30.0114 -3.103,0 0,-13.7762 -0.066,0 c -0.627,1.3738 -1.386,2.314 -2.971,2.314 -3.928,0 -4.027,-6.1468 -4.027,-9.1839 0,-2.9653 0.066,-9.6543 3.928,-9.6543 1.75,0 2.443,1.0484 3.07,2.6394 l 0.066,0 0,-2.3504 z m -1.849,2.7481 c -2.31,0 -2.046,4.8816 -2.046,6.4 0,1.4824 -0.264,6.364 2.046,6.364 2.08,0 1.948,-4.9175 1.948,-6.364 0,-1.4461 0.132,-6.4 -1.948,-6.4"
         style="fill:#000000;fill-opacity:1;fill-rule:evenodd;stroke:none"
         id="path112"
         inkscape:connector-curvature="0" /><path
         d="m 151.309,64.2574 c 0,1.4106 -0.132,4.6285 1.816,4.6285 1.881,0 1.881,-3.2179 1.881,-4.6285 l -3.697,0 z m 6.866,-2.4222 0,0.5421 c 0,3.7606 -0.528,9.5457 -5.05,9.5457 -4.589,0 -4.985,-5.8214 -4.985,-9.5457 0,-3.8691 0.429,-9.2925 5.083,-9.2925 3.5,0 4.853,3.0734 4.853,6.4359 l -2.872,0 c 0,-1.4102 -0.297,-3.3988 -1.948,-3.3988 -2.013,0 -1.947,4.1945 -1.947,5.7133 l 6.866,0"
         style="fill:#000000;fill-opacity:1;fill-rule:evenodd;stroke:none"
         id="path114"
         inkscape:connector-curvature="0" /><path
         d="m 167.273,62.4137 c 0,-1.4824 0.33,-6.2918 -1.915,-6.2918 -2.244,0 -2.046,5.0984 -2.046,6.4722 0,1.302 -0.198,6.2918 1.947,6.2918 2.014,0 2.014,-4.9898 2.014,-6.4722 z m 3.103,9.2203 -3.136,0 0,-2.0973 -0.066,-0.0722 c -0.66,1.446 -1.386,2.4585 -3.037,2.4585 -4.06,0 -3.994,-6.6167 -3.994,-9.5457 0,-3.1093 0.099,-9.2925 4.06,-9.2925 1.518,-0.0723 2.542,0.9761 2.971,2.4586 l 0.066,0 0,-3.0371 c 0,-1.6633 0.198,-3.8692 -1.882,-3.8692 -1.551,0 -2.046,1.4465 -1.98,2.7481 l -3.004,0 0,-0.5059 c 0,-3.3992 1.914,-5.2793 4.918,-5.2793 3.301,0 5.084,1.1211 5.084,7.6293 l 0,18.4047"
         style="fill:#000000;fill-opacity:1;fill-rule:evenodd;stroke:none"
         id="path116"
         inkscape:connector-curvature="0" /><path
         d="m 173.312,53.3738 3.10273,0 0,30.0113 -3.10273,0 0,-30.0113 z"
         style="fill:#000000;fill-opacity:1;fill-rule:nonzero;stroke:none"
         id="path118"
         inkscape:connector-curvature="0" /><path
         d="m 182.395,71.634 -3.103,0 0,-18.2602 3.103,0 0,18.2602 z m -1.519,3.2539 c 1.09,0 2.047,1.0129 2.047,2.2781 0,1.2293 -0.957,2.2418 -2.047,2.2418 -1.155,0 -2.079,-1.0125 -2.079,-2.2418 0,-1.2652 0.924,-2.2781 2.079,-2.2781"
         style="fill:#000000;fill-opacity:1;fill-rule:evenodd;stroke:none"
         id="path120"
         inkscape:connector-curvature="0" /><path
         d="m 200.371,80.0949 c -1.057,0.6871 -2.245,0.9039 -3.5,0.9039 -3.73,0 -5.578,-3.1457 -5.578,-6.9785 0,-7.1594 6.965,-8.2441 6.965,-13.668 0,-2.0246 -0.858,-3.7964 -2.905,-3.7964 -1.287,0 -2.278,0.6148 -3.268,1.4101 l 0,-3.6519 c 1.024,-0.9039 2.344,-1.3016 3.631,-1.3016 3.664,0 5.843,3.2902 5.843,7.123 0,3.6883 -1.288,5.4961 -3.532,7.9911 l -2.509,3.0011 c -0.66,0.9403 -0.924,1.7715 -0.924,2.9649 0,1.8804 1.122,3.5074 2.938,3.5074 1.122,0 1.947,-0.4703 2.806,-1.157 l 0.033,3.6519"
         style="fill:#000000;fill-opacity:1;fill-rule:nonzero;stroke:none"
         id="path122"
         inkscape:connector-curvature="0" /><path
         d="m 202.298,80.6371 0,-3.1457 3.895,0 0,-24.1176 3.302,0 0,24.1176 3.73,0 0,3.1457 -10.927,0"
         style="fill:#000000;fill-opacity:1;fill-rule:nonzero;stroke:none"
         id="path124"
         inkscape:connector-curvature="0" /><path
         d="m 215.19,80.6371 0,-18.8019 c 0,-4.9176 0.462,-8.8227 5.711,-8.8227 5.744,0 5.711,4.7004 5.711,8.2801 l 0,19.3445 -3.301,0 0,-20.393 c -0.033,-2.2418 -0.231,-3.8328 -2.509,-3.8328 -1.354,0 -2.311,0.7231 -2.311,4.2305 l 0,19.9953 -3.301,0"
         style="fill:#000000;fill-opacity:1;fill-rule:nonzero;stroke:none"
         id="path126"
         inkscape:connector-curvature="0" /><path
         d="m 230.725,80.6371 0,-27.2633 2.278,0 c 5.908,0 9.738,0.5785 9.738,13.1617 0,13.8125 -4.424,14.1016 -8.319,14.1016 l -3.697,0 z m 8.516,-14.1016 c 0,-4.6281 0.232,-10.2691 -5.215,-10.0882 l 0,21.1164 c 5.579,0.3617 5.215,-6.8336 5.215,-11.0282"
         style="fill:#000000;fill-opacity:1;fill-rule:evenodd;stroke:none"
         id="path128"
         inkscape:connector-curvature="0" /><path
         d="m 246.227,53.3738 3.30117,0 0,27.2633 -3.30117,0 0,-27.2633 z"
         style="fill:#000000;fill-opacity:1;fill-rule:nonzero;stroke:none"
         id="path130"
         inkscape:connector-curvature="0" /><path
         d="m 266.426,53.3738 3.103,0 0,30.0114 -3.103,0 0,-13.7762 -0.066,0 c -0.627,1.3738 -1.386,2.314 -2.971,2.314 -3.928,0 -4.027,-6.1468 -4.027,-9.1839 0,-2.9653 0.066,-9.6543 3.928,-9.6543 1.749,0 2.443,1.0484 3.07,2.6394 l 0.066,0 0,-2.3504 z m -1.849,2.7481 c -2.31,0 -2.046,4.8816 -2.046,6.4 0,1.4824 -0.264,6.364 2.046,6.364 2.08,0 1.948,-4.9175 1.948,-6.364 0,-1.4461 0.132,-6.4 -1.948,-6.4"
         style="fill:#000000;fill-opacity:1;fill-rule:evenodd;stroke:none"
         id="path132"
         inkscape:connector-curvature="0" /><path
         d="m 275.569,71.634 -3.103,0 0,-18.2602 3.103,0 0,18.2602 z m -1.518,3.2539 c 1.089,0 2.047,1.0129 2.047,2.2781 0,1.2293 -0.958,2.2418 -2.047,2.2418 -1.155,0 -2.08,-1.0125 -2.08,-2.2418 0,-1.2652 0.925,-2.2781 2.08,-2.2781"
         style="fill:#000000;fill-opacity:1;fill-rule:evenodd;stroke:none"
         id="path134"
         inkscape:connector-curvature="0" /><path
         d="m 285.854,53.3738 3.301,0 0,13.3426 0.066,0 4.489,-13.3426 3.433,0 -4.588,13.2703 c 2.74,0.5422 3.433,4.4473 3.433,7.0145 0,6.834 -3.763,6.9785 -6.173,6.9785 l -3.961,0 0,-27.2633 z m 3.301,15.1867 0,9.0032 0.528,0 c 2.509,0.0722 2.806,-2.0969 2.806,-4.7004 0,-2.7481 -0.858,-4.4836 -3.334,-4.3028"
         style="fill:#000000;fill-opacity:1;fill-rule:evenodd;stroke:none"
         id="path136"
         inkscape:connector-curvature="0" /><path
         d="m 305.53,80.9988 c -6.403,0 -6.469,-9.0758 -6.469,-13.9933 0,-4.9172 0.066,-13.993 6.469,-13.993 6.404,0 6.47,9.0758 6.47,13.993 0,4.9175 -0.066,13.9933 -6.47,13.9933 z m 0,-3.3988 c 2.608,0 2.972,-4.809 2.972,-10.5945 0,-5.7852 -0.364,-10.5942 -2.972,-10.5942 -2.607,0 -2.97,4.809 -2.97,10.5942 0,5.7855 0.363,10.5945 2.97,10.5945"
         style="fill:#000000;fill-opacity:1;fill-rule:evenodd;stroke:none"
         id="path138"
         inkscape:connector-curvature="0" /><path
         d="m 316.34,80.6371 -2.046,-27.2633 3.136,0 0.957,18.8024 0.066,0 3.202,-18.8024 2.278,0 2.574,14.8973 0.562,3.9051 0.066,0 0.065,-3.5797 0.199,-5.0621 0.594,-10.1606 3.235,0 -2.311,27.2633 -2.905,0 -2.146,-12.0043 -0.99,-6.5445 -0.099,-1.1211 -0.066,0 -3.532,19.6699 -2.839,0"
         style="fill:#000000;fill-opacity:1;fill-rule:nonzero;stroke:none"
         id="path140"
         inkscape:connector-curvature="0" /><path
         d="m 337.702,80.6371 -5.414,-27.2633 3.235,0 0.924,5.3153 4.952,0 0.924,-5.3153 3.334,0 -5.348,27.2633 -2.607,0 z m 3.202,-19.1273 -3.961,0 1.98,13.8484 0.066,0 1.254,-9.9074 0.661,-3.941"
         style="fill:#000000;fill-opacity:1;fill-rule:evenodd;stroke:none"
         id="path142"
         inkscape:connector-curvature="0" /><path
         d="m 0.440234,42.6602 0,-4.8024 6.252736,0 0,-36.81483 5.29883,0 0,36.81483 5.9875,0 0,4.8024 -17.539066,0"
         style="fill:#000000;fill-opacity:1;fill-rule:nonzero;stroke:none"
         id="path144"
         inkscape:connector-curvature="0" /><path
         d="m 42.8957,43.2117 c -10.2797,0 -10.3855,-13.8539 -10.3855,-21.3601 0,-7.5067 0.1058,-21.360584 10.3855,-21.360584 10.2797,0 10.3856,13.853884 10.3856,21.360584 0,7.5062 -0.1059,21.3601 -10.3856,21.3601 z m 0,-5.1879 c 4.1859,0 4.7688,-7.3414 4.7688,-16.1722 0,-8.8313 -0.5829,-16.1723 -4.7688,-16.1723 -4.1859,0 -4.7687,7.341 -4.7687,16.1723 0,8.8308 0.5828,16.1722 4.7687,16.1722"
         style="fill:#000000;fill-opacity:1;fill-rule:evenodd;stroke:none"
         id="path146"
         inkscape:connector-curvature="0" /><path
         d="m 71.3051,1.04297 5.2988,0 0,20.36683 0.1059,0 7.2066,-20.36683 5.5106,0 -7.3653,20.25663 c 4.3977,0.8277 5.5106,6.7887 5.5106,10.7078 0,10.4317 -6.0407,10.6528 -9.9086,10.6528 l -6.3586,0 0,-41.61723 z m 5.2988,23.18203 0,13.7434 0.8477,0 c 4.0273,0.1105 4.5039,-3.2012 4.5039,-7.1754 0,-4.195 -1.3774,-6.8442 -5.3516,-6.568"
         style="fill:#000000;fill-opacity:1;fill-rule:evenodd;stroke:none"
         id="path148"
         inkscape:connector-curvature="0" /><path
         d="m 126.352,42.6602 7.736,-41.61723 4.239,0 7.842,41.61723 -5.034,0 -2.437,-14.6821 -2.119,-14.0195 -0.265,-2.5941 -0.107,0 -4.556,31.2957 -5.299,0"
         style="fill:#000000;fill-opacity:1;fill-rule:nonzero;stroke:none"
         id="path150"
         inkscape:connector-curvature="0" /><path
         d="m 162.254,42.6602 0,-41.61723 14.253,0 0,4.80195 -8.954,0 0,14.13008 8.001,0 0,4.802 -8.001,0 0,13.0808 8.954,0 0,4.8024 -14.253,0"
         style="fill:#000000;fill-opacity:1;fill-rule:nonzero;stroke:none"
         id="path152"
         inkscape:connector-curvature="0" /><path
         d="m 193.155,1.04297 5.299,0 0,20.36683 0.106,0 7.206,-20.36683 5.511,0 -7.365,20.25663 c 4.398,0.8277 5.511,6.7887 5.511,10.7078 0,10.4317 -6.041,10.6528 -9.909,10.6528 l -6.359,0 0,-41.61723 z m 5.299,23.18203 0,13.7434 0.848,0 c 4.027,0.1105 4.504,-3.2012 4.504,-7.1754 0,-4.195 -1.378,-6.8442 -5.352,-6.568"
         style="fill:#000000;fill-opacity:1;fill-rule:evenodd;stroke:none"
         id="path154"
         inkscape:connector-curvature="0" /><path
         d="m 237.123,23.0105 0,-4.8019 4.451,0 0,-2.2629 c 0,-9.93515 -2.385,-10.2664 -4.557,-10.2664 -2.331,0 -4.663,1.65586 -4.663,16.1168 0,10.0457 0.318,16.2277 4.663,16.2277 3.285,0 4.027,-2.705 4.557,-5.4644 l 5.033,2.1523 c -1.377,5.5196 -4.079,8.5 -9.749,8.5 -9.22,0 -10.121,-9.8246 -10.121,-21.4707 0,-11.75662 1.113,-21.249984 10.598,-21.249984 10.65,0 9.537,13.908984 9.537,21.856984 l 0,0.6625 -9.749,0"
         style="fill:#000000;fill-opacity:1;fill-rule:nonzero;stroke:none"
         id="path156"
         inkscape:connector-curvature="0" /><path
         d="m 270.367,42.6602 -8.69,-41.61723 5.193,0 1.484,8.11367 7.948,0 1.484,-8.11367 5.351,0 -8.584,41.61723 -4.186,0 z m 5.14,-29.1985 -6.359,0 3.18,21.1399 0.106,0 2.013,-15.1235 1.06,-6.0164"
         style="fill:#000000;fill-opacity:1;fill-rule:evenodd;stroke:none"
         id="path158"
         inkscape:connector-curvature="0" /><path
         d="m 293.762,42.6602 0,-4.8024 6.252,0 0,-36.81483 5.299,0 0,36.81483 5.987,0 0,4.8024 -17.538,0"
         style="fill:#000000;fill-opacity:1;fill-rule:nonzero;stroke:none"
         id="path160"
         inkscape:connector-curvature="0" /><path
         d="m 330.532,42.6602 -8.69,-41.61723 5.192,0 1.484,8.11367 7.948,0 1.484,-8.11367 5.352,0 -8.584,41.61723 -4.186,0 z m 5.139,-29.1985 -6.358,0 3.179,21.1399 0.106,0 2.014,-15.1235 1.059,-6.0164"
         style="fill:#000000;fill-opacity:1;fill-rule:evenodd;stroke:none"
         id="path162"
         inkscape:connector-curvature="0" /></g></g></svg>